HIERARCHY
ROOT Hips
{
	OFFSET 15.585500 22.159004 44.358299
	CHANNELS 6 Xposition Yposition Zposition Zrotation Xrotation Yrotation
	JOINT Chest
	{
		OFFSET -0.128500 0.160400 6.566002
		CHANNELS 6 Xposition Yposition Zposition Zrotation Xrotation Yrotation
		JOINT Chest2
		{
			OFFSET 0.000000 0.000000 3.554802
			CHANNELS 6 Xposition Yposition Zposition Zrotation Xrotation Yrotation
			JOINT Neck
			{
				OFFSET 0.000000 0.000000 8.267998
				CHANNELS 6 Xposition Yposition Zposition Zrotation Xrotation Yrotation
				JOINT Head
				{
					OFFSET 0.000000 0.000002 2.173897
					CHANNELS 6 Xposition Yposition Zposition Zrotation Xrotation Yrotation
					End Site
					{
						OFFSET 0.000000 0.000000 7.718697
					}
				}
			}
			JOINT LeftCollar
			{
				OFFSET 2.057500 0.117599 5.946301
				CHANNELS 6 Xposition Yposition Zposition Zrotation Xrotation Yrotation
				JOINT LeftShoulder
				{
					OFFSET 4.957699 0.000000 0.000000
					CHANNELS 6 Xposition Yposition Zposition Zrotation Xrotation Yrotation
					JOINT LeftElbow
					{
						OFFSET 0.000000 0.000000 -8.465500
						CHANNELS 6 Xposition Yposition Zposition Zrotation Xrotation Yrotation
						JOINT LeftWrist
						{
							OFFSET 0.000000 -0.000002 -14.594898
							CHANNELS 6 Xposition Yposition Zposition Zrotation Xrotation Yrotation
							End Site
							{
								OFFSET 0.000000 0.000000 -2.173901
							}
						}
					}
				}
			}
			JOINT RightCollar
			{
				OFFSET -3.048500 -0.728800 6.604099
				CHANNELS 6 Xposition Yposition Zposition Zrotation Xrotation Yrotation
				JOINT RightShoulder
				{
					OFFSET -3.710299 0.000000 0.000000
					CHANNELS 6 Xposition Yposition Zposition Zrotation Xrotation Yrotation
					JOINT RightElbow
					{
						OFFSET 0.000000 0.000000 -10.450901
						CHANNELS 6 Xposition Yposition Zposition Zrotation Xrotation Yrotation
						JOINT RightWrist
						{
							OFFSET 0.000000 0.000000 -12.539200
							CHANNELS 6 Xposition Yposition Zposition Zrotation Xrotation Yrotation
							End Site
							{
								OFFSET 0.000000 -0.000002 -2.173901
							}
						}
					}
				}
			}
		}
	}
	JOINT LeftHip
	{
		OFFSET 2.442599 -0.601400 -2.767502
		CHANNELS 6 Xposition Yposition Zposition Zrotation Xrotation Yrotation
		JOINT LeftKnee
		{
			OFFSET 0.000000 -0.000002 -17.033703
			CHANNELS 6 Xposition Yposition Zposition Zrotation Xrotation Yrotation
			JOINT LeftAnkle
			{
				OFFSET 0.000000 -0.000002 -19.318800
				CHANNELS 6 Xposition Yposition Zposition Zrotation Xrotation Yrotation
				End Site
				{
					OFFSET 0.000000 -8.281900 0.000000
				}
			}
		}
	}
	JOINT RightHip
	{
		OFFSET -3.126200 -0.601400 -2.283501
		CHANNELS 6 Xposition Yposition Zposition Zrotation Xrotation Yrotation
		JOINT RightKnee
		{
			OFFSET 0.000000 -0.000002 -16.919401
			CHANNELS 6 Xposition Yposition Zposition Zrotation Xrotation Yrotation
			JOINT RightAnkle
			{
				OFFSET 0.000000 -0.000002 -18.035900
				CHANNELS 6 Xposition Yposition Zposition Zrotation Xrotation Yrotation
				End Site
				{
					OFFSET 0.000000 -9.230099 0.000000
				}
			}
		}
	}
}
MOTION
Frames: 9
Frame Time: 0.041667
23.902702 39.379005 8.250599 1.651918 -9.193459 -0.037705 -0.128501 0.160407 6.566007 -1.963701 10.035407 1.773279 -0.000001 0.000005 3.554802 -1.488739 -8.540222 -1.236610 -0.000003 0.000001 8.268004 8.326258 24.006476 -4.147575 0.000004 0.000002 2.173899 -0.258502 4.916986 0.496907 2.057502 0.117603 5.946304 -13.411882 -5.253221 11.476647 4.957703 0.000003 -0.000001 -5.699163 28.869082 -107.596906 0.000006 -0.000001 -8.465498 -84.542299 -110.876025 -48.490614 0.000000 0.000007 -14.594892 -797.262464 -34.297242 -379.554377 -3.048504 -0.728800 6.604104 31.829139 6.495498 -9.709240 -3.710287 0.000002 -0.000001 1.699785 27.684702 77.870215 -0.000008 0.000011 -10.450902 461.851818 -87.046513 425.399536 0.000002 0.000002 -12.539191 382.055101 168.270958 -199.014200 2.442593 -0.601401 -2.767502 134.396294 -2.566848 89.806626 -0.000001 -0.000001 -17.033707 -177.917917 45.509400 166.659730 -0.000005 0.000000 -19.318802 -139.267120 119.626474 399.886320 -3.126201 -0.601397 -2.283494 -124.547038 -33.712571 -85.745908 -0.000005 -0.000001 -16.919394 320.384530 -61.289425 -209.062323 0.000001 -0.000006 -18.035894 179.450544 53.359999 -182.472137
23.869801 39.380505 8.255100 1.699089 -9.138110 -0.537995 -0.128500 0.160401 6.566005 -1.967727 9.993514 1.663503 0.000002 0.000006 3.554803 -1.259351 -8.536143 -1.187036 -0.000002 0.000009 8.267999 7.758516 24.393432 -3.223706 0.000001 -0.000003 2.173897 -0.215990 5.062712 0.610944 2.057504 0.117607 5.946302 -13.323163 -5.141666 11.347599 4.957702 -0.000003 -0.000001 -5.869368 28.373098 -107.685002 0.000004 -0.000001 -8.465506 -83.704494 -111.449481 -48.398850 0.000002 -0.000004 -14.594894 -794.907142 -36.277734 -377.504911 -3.048502 -0.728792 6.604100 31.506310 6.800760 -9.414053 -3.710291 -0.000003 0.000000 1.839846 26.821675 79.750177 -0.000004 0.000012 -10.450904 517.080892 -86.078313 480.777453 0.000001 0.000003 -12.539196 380.158521 168.031287 -196.375343 2.442596 -0.601397 -2.767499 134.253584 -2.764047 89.448431 0.000003 -0.000000 -17.033709 -177.517955 45.604565 166.758700 -0.000004 0.000000 -19.318802 -139.435757 119.612923 399.946426 -3.126201 -0.601392 -2.283495 -124.957150 -33.441559 -86.286285 -0.000003 -0.000000 -16.919395 321.814635 -61.438419 -208.426392 0.000001 -0.000002 -18.035896 179.912483 53.355378 -182.603782
23.837902 39.380600 8.259697 1.723654 -9.065845 -1.034815 -0.128501 0.160392 6.565999 -1.951917 9.924725 1.568957 -0.000003 -0.000005 3.554807 -1.035080 -8.528396 -1.139012 -0.000001 0.000008 8.268001 7.242086 24.757716 -2.335408 0.000001 0.000004 2.173898 -0.164198 5.213534 0.736125 2.057504 0.117604 5.946304 -13.234706 -5.050886 11.219936 4.957700 0.000000 0.000001 -6.227731 27.854826 -107.831946 0.000001 0.000001 -8.465503 -83.088616 -112.157266 -48.626319 -0.000003 -0.000002 -14.594898 -792.197469 -38.516639 -375.403371 -3.048502 -0.728801 6.604103 31.189670 7.097766 -9.129484 -3.710291 0.000003 0.000002 1.999803 25.902067 81.655916 -0.000003 0.000004 -10.450904 541.379372 -83.871472 505.362090 0.000003 -0.000001 -12.539198 378.457094 167.586983 -194.618235 2.442591 -0.601406 -2.767500 134.078758 -2.946422 89.089661 -0.000003 -0.000001 -17.033707 -177.106395 45.748781 166.836878 -0.000004 -0.000002 -19.318798 -139.599245 119.602363 400.000712 -3.126199 -0.601402 -2.283497 -125.340310 -33.170404 -86.834121 -0.000007 -0.000004 -16.919395 323.211792 -61.577004 -207.800705 -0.000000 -0.000006 -18.035896 180.358194 53.350635 -182.732805
23.806995 39.379303 8.264305 1.754752 -9.005710 -1.521124 -0.128499 0.160407 6.566006 -1.944406 9.860094 1.486499 -0.000003 0.000002 3.554805 -0.945620 -8.526394 -1.021056 -0.000001 0.000005 8.267996 6.947518 25.101249 -1.581189 0.000002 0.000001 2.173899 -0.103650 5.372247 0.877277 2.057503 0.117597 5.946308 -13.031303 -4.948806 11.007894 4.957696 0.000003 0.000002 -6.462689 27.263482 -107.923751 0.000004 -0.000002 -8.465504 -81.928795 -112.772714 -48.383131 0.000003 -0.000001 -14.594893 -789.139730 -40.759629 -373.175855 -3.048501 -0.728804 6.604104 31.011671 4.362199 -8.980100 -3.710296 -0.000001 0.000000 1.752015 27.877593 83.518365 -0.000000 0.000007 -10.450905 549.479047 -81.122963 513.970205 0.000001 0.000003 -12.539188 376.161112 167.147338 -192.909759 2.442594 -0.601399 -2.767500 133.945392 -3.141943 88.742059 -0.000001 0.000003 -17.033709 -176.708346 45.840285 166.936312 -0.000000 -0.000002 -19.318810 -139.758101 119.594222 400.050081 -3.126200 -0.601396 -2.283496 -125.707883 -32.917506 -87.357942 -0.000006 -0.000002 -16.919401 324.566191 -61.705070 -207.190196 -0.000001 -0.000005 -18.035896 180.785258 53.345683 -182.857565
23.777004 39.376808 8.268997 1.874713 -8.861904 -2.054012 -0.128500 0.160395 6.566003 -2.034777 9.699357 1.482485 -0.000002 -0.000001 3.554804 -0.612178 -8.512682 -1.050362 0.000001 0.000010 8.268002 6.371760 25.434615 -0.656286 0.000000 0.000011 2.173894 -0.035068 5.540573 1.038428 2.057502 0.117601 5.946303 -13.069772 -4.919296 10.974168 4.957697 0.000001 0.000004 -6.855259 26.584263 -107.834569 0.000004 0.000005 -8.465502 -80.905469 -113.272923 -48.300987 0.000000 0.000000 -14.594892 -785.723106 -42.966910 -370.700075 -3.048501 -0.728796 6.604101 30.599463 4.485354 -8.645541 -3.710289 0.000003 0.000003 1.927605 27.046695 85.457783 -0.000003 0.000015 -10.450892 553.382364 -78.376783 518.558890 0.000001 0.000002 -12.539192 373.651291 166.928430 -191.186666 2.442595 -0.601403 -2.767502 133.727823 -3.223831 88.414552 -0.000001 -0.000006 -17.033705 -176.316511 45.927507 167.035760 -0.000001 -0.000002 -19.318802 -139.912737 119.588129 400.095707 -3.126199 -0.601399 -2.283497 -126.215216 -32.684808 -88.000034 -0.000003 -0.000004 -16.919399 325.867478 -61.822720 -206.600750 -0.000004 -0.000003 -18.035896 181.189961 53.340318 -182.975509
23.747900 39.373299 8.274094 1.920239 -8.778776 -2.511462 -0.128498 0.160400 6.566005 -2.041221 9.598389 1.411815 -0.000001 -0.000006 3.554810 -0.419902 -8.508671 -1.011474 0.000001 -0.000004 8.268000 6.022661 25.753476 0.138662 0.000003 -0.000001 2.173900 0.040552 5.719979 1.222624 2.057505 0.117596 5.946304 -12.997226 -4.872462 10.859981 4.957699 0.000000 0.000006 -7.129925 25.944880 -107.921169 0.000002 0.000000 -8.465506 -79.489509 -113.918758 -48.011138 -0.000002 0.000003 -14.594893 -781.840006 -45.095617 -367.991331 -3.048502 -0.728803 6.604101 31.856959 4.549171 -8.561838 -3.710294 -0.000003 0.000000 0.608408 25.953257 87.453325 0.000001 0.000008 -10.450906 555.451856 -75.697375 521.485817 0.000003 0.000002 -12.539190 370.646444 166.908841 -189.223984 2.442591 -0.601399 -2.767505 133.583815 -3.397734 88.102344 -0.000001 -0.000002 -17.033709 -175.933392 46.009554 167.133609 -0.000000 -0.000003 -19.318804 -140.062728 119.583334 400.137945 -3.126199 -0.601399 -2.283502 -126.571233 -32.443474 -88.512599 -0.000005 -0.000003 -16.919390 327.106502 -61.929721 -206.037424 -0.000001 -0.000004 -18.035896 181.569664 53.334639 -183.085174
23.719698 39.368904 8.279499 1.962531 -8.688868 -2.952468 -0.128503 0.160401 6.566000 -2.043444 9.484429 1.341148 0.000001 0.000003 3.554805 -0.244223 -8.505515 -0.975675 0.000002 0.000007 8.268001 5.732270 26.060334 0.907342 0.000002 -0.000001 2.173900 -0.230603 6.020522 2.062080 2.057506 0.117601 5.946305 -12.933900 -4.836675 10.754497 4.957695 0.000000 -0.000001 -7.301827 25.214253 -108.184152 0.000004 0.000001 -8.465506 -78.214907 -114.909887 -47.868756 -0.000001 0.000000 -14.594893 -777.814020 -47.099758 -365.008724 -3.048500 -0.728796 6.604100 31.796907 4.581586 -8.347990 -3.710290 0.000003 -0.000003 0.702823 25.031089 89.475785 -0.000003 0.000005 -10.450901 556.874066 -73.131614 523.945341 0.000001 0.000004 -12.539189 368.060508 166.919127 -187.594834 2.442595 -0.601404 -2.767502 133.446528 -3.561230 87.807341 -0.000001 0.000001 -17.033707 -175.560874 46.085714 167.227961 -0.000001 0.000001 -19.318806 -140.207664 119.579510 400.177778 -3.126199 -0.601401 -2.283499 -126.907538 -32.212067 -89.010725 -0.000004 -0.000003 -16.919397 328.276677 -62.026341 -205.504409 -0.000001 -0.000005 -18.035896 181.922485 53.328601 -183.185373
23.692200 39.363800 8.285301 2.002307 -8.589235 -3.374586 -0.128496 0.160396 6.566003 -2.041459 9.356125 1.267982 -0.000000 0.000004 3.554805 -0.090240 -8.650104 -0.960181 0.000002 0.000004 8.267997 5.500364 26.502452 1.653757 0.000003 0.000005 2.173896 0.058389 6.157508 1.933996 2.057502 0.117600 5.946305 -12.876155 -4.671960 10.708996 4.957692 -0.000002 0.000004 -7.645587 24.428590 -108.235303 0.000004 -0.000001 -8.465504 -76.807137 -115.584272 -47.671285 0.000002 0.000002 -14.594898 -773.017861 -49.271950 -361.179174 -3.048500 -0.728798 6.604101 31.720273 4.724465 -8.197722 -3.710302 0.000002 -0.000004 0.812211 24.076748 91.402684 -0.000005 0.000007 -10.450909 557.260490 -70.659120 525.510274 0.000000 -0.000004 -12.539192 365.046973 167.251675 -185.968894 2.442597 -0.601405 -2.767503 133.366806 -3.709506 87.549187 -0.000003 -0.000001 -17.033705 -175.220594 46.106946 167.340154 -0.000004 -0.000000 -19.318808 -140.346713 119.575999 400.215645 -3.126200 -0.601407 -2.283496 -127.225797 -31.988023 -89.495217 -0.000003 -0.000006 -16.919397 329.374316 -62.112572 -205.004071 -0.000001 -0.000000 -18.035894 182.247533 53.322324 -183.275436
23.665596 39.358009 8.291401 2.046761 -8.476062 -3.683448 -0.128501 0.160396 6.566007 -2.026661 9.213111 1.097221 0.000001 0.000004 3.554805 0.045893 -8.664220 -0.934425 -0.000000 0.000007 8.268000 5.326650 26.799822 2.376847 0.000001 0.000001 2.173897 0.359901 6.300755 1.813526 2.057507 0.117608 5.946301 -12.833212 -4.642260 10.635063 4.957697 0.000001 0.000005 -8.070416 23.607693 -108.194670 0.000001 0.000005 -8.465505 -75.201537 -116.063014 -47.379513 0.000008 0.000001 -14.594900 -768.324865 -50.618634 -358.759484 -3.048504 -0.728798 6.604097 31.621983 4.729815 -7.987743 -3.710288 0.000000 0.000002 1.103104 23.082561 93.219255 -0.000008 0.000000 -10.450900 557.233935 -68.423688 526.802109 -0.000001 0.000006 -12.539195 361.898611 167.725540 -184.350631 2.442594 -0.601406 -2.767503 133.210914 -3.853135 87.354349 -0.000003 -0.000005 -17.033701 -174.893086 46.203593 167.387473 -0.000002 -0.000001 -19.318800 -140.469670 119.571122 400.252145 -3.126202 -0.601401 -2.283495 -127.514099 -31.654939 -89.911353 -0.000004 0.000001 -16.919401 330.488757 -62.188490 -204.496506 0.000000 -0.000001 -18.035894 182.573962 53.315849 -183.366728
